<svg width="355" height="204" viewBox="0 0 355 204" fill="none" xmlns="http://www.w3.org/2000/svg">
<path d="M63.2559 15.684L58.6729 15.9001C54.3418 16.1163 50.0107 15.3598 45.9818 13.5766C38.5786 10.2263 32.4345 6.11944 26.1896 3.09337C20.1462 0.229409 12.9949 1.58033 8.36161 6.65981C-4.63171 20.9256 -2.81869 56.536 16.1677 85.0675C19.2901 89.7147 22.8658 93.9836 27.0962 97.5501C35.1037 104.305 44.3702 108.52 54.0397 111.059C54.4929 111.167 54.9462 110.789 54.9462 110.249V104.899C54.9462 104.521 54.7447 104.143 54.3922 103.98L45.6293 99.2793C37.521 94.9023 30.5711 88.3638 25.6357 80.1502C24.3263 77.9887 23.0672 75.7191 21.9089 73.3415C19.9448 69.3428 18.3332 65.1819 17.326 60.8049C15.0094 50.9161 14.5561 40.8112 15.6137 30.4361C16.1173 25.7349 18.0814 21.3038 21.3549 18.1697C21.4053 18.1157 21.4556 18.1157 21.4556 18.0616C24.3263 15.3057 28.4056 14.4952 32.0316 15.9001C33.5928 16.4946 35.2044 17.089 36.8663 17.6834C45.2767 20.6554 54.4426 20.2231 62.4501 16.2244C62.7019 16.1163 63.004 15.9542 63.2559 15.7921C63.3566 15.738 63.3566 15.684 63.2559 15.684Z" fill="#1E63E4"/>
<path d="M41.8014 5.46896L48.3484 6.982C50.2622 7.4143 52.1759 7.57641 54.0897 7.36026C62.4497 6.49567 69.3493 3.30748 76.7524 0.767744C82.8966 -1.3397 89.5947 0.983892 93.3718 6.60374C96.192 10.8727 98.2569 15.6279 99.4152 20.9235C99.4656 21.1937 99.2641 21.4639 99.0123 21.4639H84.5081C84.3571 21.4639 84.206 21.3558 84.1556 21.1937C84.0549 21.0316 84.0045 20.8155 83.9038 20.6534C81.4361 15.1956 76.0977 11.8453 70.4572 12.0074L61.0396 12.2236C56.507 12.3317 52.0249 11.359 47.8952 9.25156C45.8807 8.22485 43.8159 7.03604 41.7511 5.68511C41.6503 5.57704 41.7007 5.46896 41.8014 5.46896Z" fill="#1E63E4"/>
<path d="M18.9375 33.4644C22.3621 18.0639 33.7438 16.6049 48.2984 26.6558C48.3487 26.6558 48.2984 26.7098 48.248 26.7098C34.8518 21.252 24.578 23.0893 19.0886 33.5184C19.0382 33.5725 18.9375 33.5184 18.9375 33.4644Z" fill="#1E63E4"/>
<path d="M78.6164 112.412C78.8179 112.736 78.969 113.006 79.1201 113.331C80.228 115.492 79.8755 118.248 78.2136 119.977C68.0909 130.622 44.2194 124.246 30.1181 111.547C30.0174 111.439 29.8663 111.601 29.9671 111.709C38.9818 128.407 68.6952 135.486 80.4295 123.381C83.149 120.571 83.0986 115.816 80.1273 113.276C79.674 112.898 79.2208 112.574 78.7172 112.304C78.6164 112.25 78.5661 112.358 78.6164 112.412Z" fill="#1E63E4"/>
<path d="M75.6954 132.941C75.8465 133.211 75.9975 133.481 76.1486 133.697C77.1055 135.589 76.8033 137.966 75.3932 139.479C66.5799 148.72 45.8309 143.154 33.5427 132.184C33.4419 132.13 33.3412 132.238 33.3916 132.292C41.248 146.828 67.0835 152.989 77.307 142.451C79.674 140.02 79.6236 135.859 77.0551 133.697C76.6523 133.373 76.2494 133.103 75.7961 132.833C75.7457 132.833 75.645 132.887 75.6954 132.941Z" fill="#727B82"/>
<path d="M73.5798 152.986C73.7309 153.203 73.8316 153.473 73.9827 153.689C74.8388 155.364 74.587 157.471 73.2776 158.822C65.4212 167.036 46.9384 162.119 36.0099 152.284C35.9092 152.23 35.8085 152.338 35.8589 152.392C42.8591 165.307 65.8744 170.819 74.9899 161.47C77.1051 159.309 77.0547 155.634 74.7381 153.635C74.3855 153.365 74.033 153.094 73.6301 152.878C73.5798 152.824 73.5294 152.932 73.5798 152.986Z" fill="#727B82"/>
<path d="M70.6587 174.007C70.7594 174.223 70.8601 174.385 70.9608 174.601C71.6659 176.006 71.4645 177.789 70.4069 178.87C63.8598 185.733 48.4492 181.626 39.3337 173.412C39.2833 173.358 39.1826 173.412 39.233 173.52C45.0749 184.328 64.2627 188.867 71.8673 181.086C73.63 179.302 73.5796 176.222 71.6659 174.547C71.3637 174.331 71.0616 174.115 70.7594 173.899C70.709 173.899 70.6587 173.953 70.6587 174.007Z" fill="#727B82"/>
<path d="M66.5793 192.221C66.8815 192.924 67.0829 193.572 67.2844 194.275C67.788 196.166 66.7808 198.327 65.1188 199.138C58.2696 202.326 49.7585 199.354 41.9524 194.599C41.8517 194.545 41.751 194.653 41.8014 194.761C47.8951 203.515 61.795 206.379 68.3923 201.894C70.6082 200.381 71.2629 197.193 69.7017 194.923C68.9463 193.788 67.8384 192.924 66.7304 192.113C66.68 192.005 66.5289 192.113 66.5793 192.221Z" fill="#727B82"/>
<path d="M67.3852 35.3535L57.4136 34.1106C57.2625 34.1106 57.2122 34.0025 57.2122 33.8404V28.9771C57.2122 28.815 57.3129 28.7069 57.464 28.7069H78.213C78.3137 28.7069 78.3641 28.7609 78.4144 28.815L116.941 82.7439C117.092 82.9601 117.394 82.852 117.394 82.5818V36.3802C117.394 36.2721 117.294 36.11 117.193 36.11L108.883 34.8671C108.783 34.8671 108.682 34.7591 108.682 34.5969V28.9771C108.682 28.815 108.783 28.7069 108.934 28.7069H132.15C132.301 28.7069 132.402 28.815 132.402 28.9771V34.5969C132.402 34.705 132.301 34.8671 132.201 34.8671L124.596 36.11C124.495 36.11 124.395 36.2181 124.395 36.3802V108.52C124.395 108.682 124.294 108.79 124.143 108.79H119.358C119.258 108.79 119.207 108.736 119.157 108.682L74.8891 46.377C74.738 46.1609 74.4359 46.2689 74.4359 46.5391V101.008C74.4359 101.171 74.5366 101.279 74.6373 101.279L83.1484 102.305C83.2995 102.305 83.3499 102.413 83.3499 102.575V108.466C83.3499 108.628 83.2492 108.736 83.0981 108.736H58.9245C58.7734 108.736 58.6726 108.628 58.6726 108.466V102.575C58.6726 102.413 58.7734 102.305 58.8741 102.305L67.3349 101.171C67.4859 101.171 67.5363 101.062 67.5363 100.9V35.6236C67.637 35.4615 67.5363 35.3535 67.3852 35.3535Z" fill="#030F26"/>
<path d="M170.374 28.7069H175.511C175.612 28.7069 175.713 28.7609 175.763 28.869L201.145 101.549C201.196 101.657 201.246 101.711 201.347 101.711L210.11 103.548C210.21 103.548 210.311 103.71 210.311 103.818V108.466C210.311 108.628 210.21 108.736 210.059 108.736H179.741C179.59 108.736 179.49 108.628 179.49 108.466V103.818C179.49 103.71 179.59 103.602 179.691 103.548L188.001 101.981C188.152 101.927 188.253 101.765 188.202 101.603L180.9 80.5284C180.849 80.4203 180.749 80.3663 180.648 80.3663L160.151 80.3123C160.05 80.3123 159.949 80.3663 159.899 80.4744L152.143 102.197C152.093 102.359 152.194 102.521 152.345 102.576L160.201 103.548C160.352 103.548 160.403 103.656 160.403 103.818V108.466C160.403 108.628 160.302 108.736 160.151 108.736H133.912C133.761 108.736 133.661 108.628 133.661 108.466V103.818C133.661 103.656 133.761 103.548 133.862 103.548L142.272 102.63C142.373 102.63 142.423 102.576 142.474 102.467L170.022 28.815C170.173 28.7609 170.273 28.7069 170.374 28.7069ZM170.374 51.4025L162.367 73.7738C162.316 73.9359 162.417 74.1521 162.618 74.1521L178.281 73.9899C178.432 73.9899 178.583 73.8278 178.533 73.6117L170.878 51.4565C170.727 51.1863 170.425 51.1863 170.374 51.4025Z" fill="#030F26"/>
<path d="M223.454 35.2454L213.231 34.0566C213.08 34.0566 212.979 33.9485 212.979 33.7864V28.9771C212.979 28.815 213.08 28.7069 213.231 28.7069H245.765C245.916 28.7069 246.016 28.815 246.016 28.9771V33.7864C246.016 33.9485 245.916 34.0566 245.765 34.0566L235.541 35.1914C235.39 35.1914 235.289 35.2994 235.289 35.4615L235.239 101.603C235.239 101.765 235.34 101.873 235.491 101.873L245.714 102.954C245.865 102.954 245.966 103.062 245.966 103.224V108.466C245.966 108.628 245.865 108.736 245.714 108.736H213.181C213.03 108.736 212.929 108.628 212.929 108.466V103.116C212.929 102.954 213.03 102.846 213.181 102.846L223.354 101.873C223.505 101.873 223.606 101.765 223.606 101.603V35.5156C223.656 35.4075 223.555 35.2994 223.454 35.2454Z" fill="#030F26"/>
<path d="M332.337 35.2454L322.114 34.0566C321.963 34.0566 321.862 33.9485 321.862 33.7864V28.9771C321.862 28.815 321.963 28.7069 322.114 28.7069H354.647C354.799 28.7069 354.899 28.815 354.899 28.9771V33.7864C354.899 33.9485 354.799 34.0566 354.647 34.0566L344.424 35.1914C344.273 35.1914 344.172 35.2994 344.172 35.4615L344.122 101.603C344.122 101.765 344.223 101.873 344.374 101.873L354.597 102.954C354.748 102.954 354.849 103.062 354.849 103.224V108.466C354.849 108.628 354.748 108.736 354.597 108.736H322.063C321.912 108.736 321.812 108.628 321.812 108.466V103.116C321.812 102.954 321.912 102.846 322.063 102.846L332.237 101.873C332.388 101.873 332.488 101.765 332.488 101.603V35.5156C332.589 35.4075 332.488 35.2994 332.337 35.2454Z" fill="#030F26"/>
<path d="M251.405 102.789L261.075 101.762C261.226 101.762 261.326 101.654 261.326 101.492V35.9989C261.326 35.8368 261.226 35.7287 261.125 35.7287L251.053 34.3778C250.902 34.3778 250.851 34.2698 250.851 34.1076V29.3524C250.851 29.1903 250.952 29.0822 251.103 29.0822H266.665C268.176 29.0822 272.356 28.812 273.766 28.7039C274.118 28.7039 274.42 28.6499 274.773 28.6499H282.176C294.213 28.3797 302.019 32.5946 305.796 41.1865C307.458 44.9691 308.112 49.184 307.508 53.2908C306.249 61.7205 300.659 66.6379 292.903 69.8801C292.802 69.9342 292.752 70.0422 292.752 70.1503V70.5826C292.752 70.6366 292.802 70.7447 292.853 70.7988C295.27 72.8522 297.486 75.3379 299.148 78.526L310.077 100.789C310.379 101.438 310.983 101.87 311.688 101.978L318.688 102.897C318.839 102.897 318.89 103.005 318.89 103.167V108.463C318.89 108.625 318.789 108.733 318.638 108.733H300.306C299.903 108.733 299.501 108.517 299.249 108.138C298.594 107.112 293.356 95.3856 293.356 95.3856L286.809 82.0925C284.644 77.7695 282.025 74.3112 278.248 72.636C277.341 72.2037 276.334 72.0416 275.327 71.9876C274.773 71.9876 273.766 71.9876 273.313 71.9876C273.161 71.9876 273.061 72.0956 273.061 72.2578V101.438C273.061 101.6 273.161 101.708 273.313 101.708L284.09 102.735C284.241 102.735 284.342 102.843 284.342 103.005V108.192C284.342 108.354 284.241 108.463 284.09 108.463H251.456C251.304 108.463 251.204 108.354 251.204 108.192V103.005C251.204 102.897 251.304 102.789 251.405 102.789ZM293.155 44.861C290.133 37.62 283.032 35.5666 273.313 36.107C273.161 36.107 273.061 36.2151 273.061 36.3772V65.341C273.061 65.5031 273.161 65.6112 273.313 65.6112C274.269 65.6652 275.327 65.7193 278.198 65.7193C286.155 65.5572 291.896 62.6932 293.81 55.2901C294.716 51.8318 294.515 48.1032 293.155 44.861Z" fill="#030F26"/>
<path d="M104.854 170.82C103.494 170.82 102.336 170.55 101.279 170.064C100.221 169.577 99.3648 168.875 98.6094 167.956C97.9043 167.038 97.3503 165.957 96.9474 164.66C96.5445 163.363 96.3934 161.958 96.3934 160.391C96.3934 158.77 96.5949 157.365 97.0481 156.068C97.451 154.771 98.0554 153.691 98.8108 152.772C99.5662 151.853 100.473 151.151 101.581 150.664C102.638 150.178 103.847 149.908 105.106 149.908C107.07 149.908 108.581 150.34 109.739 151.259C110.898 152.123 111.452 153.258 111.452 154.663C111.452 155.474 111.25 156.122 110.847 156.609C110.444 157.095 109.89 157.311 109.185 157.311C108.43 157.311 107.876 157.095 107.523 156.609C107.171 156.122 106.969 155.582 106.969 154.933C106.969 154.393 107.12 153.907 107.372 153.474C107.624 153.042 108.027 152.772 108.48 152.502V152.394C108.178 152.177 107.775 152.015 107.272 151.907C106.768 151.799 106.164 151.745 105.358 151.745C104.502 151.745 103.746 151.907 103.041 152.232C102.336 152.556 101.732 153.042 101.228 153.636C100.725 154.231 100.322 154.933 100.019 155.744C99.7173 156.554 99.5662 157.419 99.5662 158.392V161.256C99.5662 162.336 99.7173 163.255 99.9691 164.12C100.221 164.984 100.624 165.741 101.127 166.335C101.631 166.93 102.185 167.416 102.89 167.74C103.595 168.064 104.351 168.226 105.207 168.226C106.667 168.226 107.826 167.902 108.682 167.254C109.538 166.605 110.193 165.741 110.696 164.66L111.854 165.471C111.653 166.119 111.351 166.767 110.898 167.416C110.495 168.064 109.991 168.605 109.437 169.091C108.883 169.577 108.178 169.956 107.423 170.226C106.718 170.712 105.811 170.82 104.854 170.82Z" fill="#030F26"/>
<path d="M115.178 168.604H117.847V152.933L115.178 152.447V151.15L120.819 150.015V168.658H123.488V170.441H115.178V168.604ZM119.308 145.854C118.703 145.854 118.2 145.638 117.898 145.26C117.595 144.882 117.394 144.395 117.394 143.801V143.585C117.394 143.044 117.545 142.558 117.898 142.126C118.2 141.748 118.703 141.531 119.308 141.531C119.912 141.531 120.416 141.748 120.768 142.126C121.121 142.504 121.272 142.99 121.272 143.585V143.801C121.272 144.341 121.121 144.828 120.768 145.26C120.416 145.638 119.962 145.854 119.308 145.854Z" fill="#030F26"/>
<path d="M126.509 168.61H129.228V152.182H126.509V150.453H133.056L138.394 161.909H138.545L143.833 150.453H150.027V152.182H147.358V168.61H150.027V170.393H141.718V168.61H144.437V153.371H144.337L143.027 156.289L137.941 167.259L132.804 156.289L131.494 153.371H131.394V168.61H134.063V170.393H126.559V168.61H126.509Z" fill="#030F26"/>
<path d="M161.914 170.82C160.605 170.82 159.396 170.55 158.389 170.064C157.331 169.577 156.475 168.875 155.72 167.956C155.015 167.038 154.461 165.957 154.058 164.66C153.655 163.363 153.504 161.958 153.504 160.391C153.504 158.824 153.705 157.419 154.158 156.176C154.561 154.879 155.166 153.799 155.871 152.88C156.626 151.961 157.482 151.259 158.49 150.718C159.497 150.232 160.605 149.962 161.813 149.962C163.022 149.962 164.13 150.178 165.087 150.664C166.044 151.151 166.85 151.799 167.504 152.61C168.159 153.474 168.663 154.447 169.015 155.636C169.368 156.825 169.569 158.067 169.569 159.418V160.337H156.777V161.364C156.777 163.525 157.281 165.254 158.288 166.497C159.295 167.74 160.655 168.389 162.367 168.389C163.878 168.389 165.037 168.064 165.893 167.416C166.749 166.767 167.454 165.903 167.958 164.876L169.166 165.687C168.914 166.335 168.612 166.984 168.159 167.632C167.756 168.28 167.253 168.821 166.648 169.307C166.044 169.793 165.339 170.172 164.583 170.442C163.778 170.712 162.871 170.82 161.914 170.82ZM156.727 158.554H166.396V158.176C166.396 157.257 166.296 156.446 166.145 155.69C165.943 154.933 165.691 154.231 165.288 153.69C164.886 153.15 164.432 152.664 163.828 152.34C163.224 152.015 162.519 151.853 161.713 151.853C160.907 151.853 160.152 152.015 159.547 152.34C158.943 152.664 158.389 153.096 157.986 153.636C157.583 154.177 157.231 154.879 157.029 155.636C156.828 156.392 156.727 157.203 156.727 158.122V158.554Z" fill="#030F26"/>
<path d="M172.943 168.609H175.612V152.182H172.943V150.453H181.152V152.182H178.483V159.477L178.18 164.827H178.281L187.598 153.317V152.182H184.929V150.453H193.138V152.182H190.469V168.609H193.138V170.393H184.929V168.609H187.598V161.368L187.9 155.965H187.749L178.483 167.475V168.609H181.152V170.393H172.943V168.609ZM183.015 147.319C182.008 147.319 181.152 147.211 180.447 146.941C179.742 146.67 179.137 146.4 178.684 145.968C178.231 145.59 177.878 145.157 177.677 144.617C177.475 144.131 177.375 143.59 177.375 143.05C177.375 142.401 177.526 141.861 177.878 141.537C178.231 141.213 178.634 140.997 179.188 140.997C179.742 140.997 180.195 141.159 180.497 141.483C180.799 141.807 180.95 142.293 180.95 142.888C180.95 143.428 180.799 143.806 180.547 144.131C180.296 144.401 179.993 144.617 179.641 144.779V144.833C180.044 145.049 180.547 145.211 181.101 145.319C181.655 145.428 182.31 145.482 183.015 145.482C183.72 145.482 184.324 145.428 184.929 145.319C185.483 145.211 185.986 145.049 186.389 144.833V144.779C186.037 144.671 185.735 144.455 185.483 144.131C185.231 143.86 185.08 143.428 185.08 142.888C185.08 142.293 185.231 141.807 185.533 141.483C185.835 141.159 186.289 140.997 186.843 140.997C187.397 140.997 187.85 141.159 188.152 141.537C188.505 141.861 188.656 142.401 188.656 143.05C188.656 143.59 188.555 144.131 188.353 144.617C188.152 145.103 187.799 145.59 187.346 145.968C186.893 146.346 186.289 146.67 185.584 146.941C184.929 147.211 184.073 147.319 183.015 147.319Z" fill="#030F26"/>
<path d="M196.713 168.61H199.382V152.182H196.713V150.453H205.022V152.182H202.353V159.315H211.267V152.182H208.598V150.453H216.908V152.182H214.239V168.61H216.908V170.393H208.598V168.61H211.267V161.206H202.353V168.61H205.022V170.393H196.713V168.61Z" fill="#030F26"/>
<path d="M226.023 170.82C224.311 170.82 222.951 170.334 221.994 169.361C221.037 168.389 220.534 167.092 220.534 165.417C220.534 164.444 220.685 163.633 220.987 162.877C221.289 162.12 221.742 161.526 222.397 161.04C223.052 160.553 223.908 160.175 224.966 159.905C226.023 159.635 227.282 159.526 228.843 159.526H231.513V156.608C231.513 155.041 231.16 153.853 230.455 152.988C229.75 152.177 228.692 151.745 227.282 151.745C226.678 151.745 226.073 151.799 225.57 151.907C225.066 152.015 224.613 152.177 224.26 152.394V152.448C224.512 152.61 224.764 152.826 225.016 153.15C225.268 153.474 225.419 153.907 225.419 154.447C225.419 155.095 225.217 155.636 224.865 156.014C224.512 156.392 224.009 156.554 223.404 156.554C222.85 156.554 222.347 156.392 221.994 156.014C221.642 155.636 221.44 155.095 221.44 154.339C221.44 153.799 221.591 153.204 221.893 152.718C222.196 152.177 222.649 151.745 223.203 151.313C223.757 150.881 224.512 150.556 225.368 150.34C226.225 150.07 227.181 149.962 228.289 149.962C230.253 149.962 231.764 150.502 232.822 151.583C233.93 152.664 234.484 154.177 234.484 156.122V168.659H237.203V170.01C236.952 170.226 236.599 170.388 236.146 170.55C235.693 170.712 235.189 170.766 234.635 170.766C233.678 170.766 232.973 170.496 232.469 169.902C231.966 169.361 231.714 168.551 231.714 167.632V167.47H231.513C231.361 167.902 231.11 168.334 230.858 168.767C230.606 169.199 230.203 169.523 229.8 169.848C229.347 170.172 228.843 170.388 228.239 170.604C227.534 170.766 226.829 170.82 226.023 170.82ZM227.282 168.713C228.44 168.713 229.397 168.389 230.254 167.74C231.059 167.092 231.462 166.119 231.462 164.822V161.094H229.146C228.088 161.094 227.232 161.202 226.577 161.364C225.872 161.526 225.318 161.796 224.915 162.12C224.512 162.444 224.21 162.823 224.009 163.309C223.807 163.795 223.757 164.336 223.757 164.93V165.741C223.757 166.713 224.059 167.47 224.714 167.956C225.268 168.443 226.124 168.713 227.282 168.713Z" fill="#030F26"/>
<path d="M104.854 204C103.495 204 102.336 203.73 101.279 203.244C100.221 202.757 99.3649 202.055 98.6095 201.136C97.9044 200.218 97.3504 199.137 96.9475 197.84C96.5446 196.543 96.3936 195.138 96.3936 193.571C96.3936 191.95 96.595 190.545 97.0483 189.248C97.4512 187.951 98.0555 186.87 98.8109 185.952C99.5663 185.033 100.473 184.331 101.581 183.844C102.638 183.358 103.847 183.088 105.106 183.088C107.07 183.088 108.581 183.52 109.739 184.439C110.898 185.303 111.452 186.438 111.452 187.843C111.452 188.654 111.25 189.302 110.847 189.788C110.444 190.275 109.89 190.491 109.185 190.491C108.43 190.491 107.876 190.275 107.523 189.788C107.171 189.302 106.97 188.762 106.97 188.113C106.97 187.573 107.121 187.087 107.372 186.654C107.624 186.222 108.027 185.952 108.48 185.682V185.574C108.178 185.357 107.775 185.195 107.272 185.087C106.768 184.979 106.164 184.925 105.358 184.925C104.502 184.925 103.746 185.087 103.041 185.411C102.336 185.736 101.732 186.222 101.228 186.816C100.725 187.411 100.322 188.113 100.02 188.924C99.7174 189.734 99.5663 190.599 99.5663 191.572V194.436C99.5663 195.516 99.7174 196.435 99.9692 197.3C100.221 198.164 100.624 198.921 101.128 199.515C101.631 200.109 102.185 200.596 102.89 200.92C103.595 201.244 104.351 201.406 105.207 201.406C106.667 201.406 107.826 201.082 108.682 200.434C109.538 199.785 110.193 198.921 110.696 197.84L111.855 198.65C111.653 199.299 111.351 199.947 110.898 200.596C110.495 201.244 109.991 201.785 109.437 202.271C108.883 202.757 108.178 203.136 107.423 203.406C106.718 203.838 105.811 204 104.854 204Z" fill="#030F26"/>
<path d="M115.178 201.73H117.898V185.302H115.178V183.573H121.725L127.064 195.029H127.215L132.503 183.573H138.697V185.302H136.028V201.73H138.697V203.513H130.387V201.73H133.107V186.491H132.956L131.646 189.409L126.56 200.433L121.423 189.463L120.114 186.545H120.013V201.784H122.682V203.567H115.178V201.73Z" fill="#030F26"/>
<path d="M145.043 201.73H148.417V185.465H143.885V189.463H141.719V183.573H158.087V189.463H155.921V185.465H151.389V201.73H154.763V203.513H145.043V201.73Z" fill="#030F26"/>
<path d="M169.468 204C168.209 204 167.05 203.73 165.993 203.244C164.935 202.757 164.029 202.055 163.273 201.136C162.518 200.218 161.964 199.137 161.561 197.84C161.158 196.543 160.957 195.138 160.957 193.517C160.957 191.95 161.158 190.491 161.561 189.248C161.964 187.951 162.568 186.87 163.273 185.952C164.029 185.033 164.935 184.331 165.993 183.844C167.05 183.358 168.209 183.088 169.468 183.088C170.727 183.088 171.885 183.358 172.943 183.844C174 184.331 174.907 185.033 175.662 185.952C176.418 186.87 176.972 187.951 177.375 189.248C177.777 190.545 177.979 191.95 177.979 193.517C177.979 195.138 177.777 196.543 177.375 197.84C176.972 199.137 176.367 200.218 175.662 201.136C174.907 202.055 174 202.757 172.943 203.244C171.885 203.73 170.727 204 169.468 204ZM169.468 202.109C170.374 202.109 171.13 201.947 171.784 201.623C172.439 201.298 172.993 200.866 173.396 200.272C173.799 199.677 174.151 199.029 174.353 198.218C174.554 197.408 174.655 196.543 174.655 195.624V191.409C174.655 190.491 174.554 189.626 174.353 188.816C174.151 188.005 173.849 187.357 173.396 186.762C172.993 186.168 172.439 185.736 171.784 185.411C171.13 185.087 170.374 184.925 169.468 184.925C168.561 184.925 167.755 185.087 167.151 185.411C166.496 185.736 165.993 186.168 165.54 186.762C165.137 187.357 164.784 188.005 164.583 188.816C164.381 189.626 164.281 190.491 164.281 191.409V195.624C164.281 196.543 164.381 197.408 164.583 198.218C164.784 199.029 165.086 199.677 165.54 200.272C165.942 200.866 166.496 201.298 167.151 201.623C167.755 201.947 168.561 202.109 169.468 202.109Z" fill="#030F26"/>
<path d="M181.404 201.73H184.124V185.302H181.404V183.573H187.951L193.29 195.029H193.441L198.729 183.573H204.923V185.302H202.254V201.73H204.923V203.513H196.613V201.73H199.333V186.491H199.232L197.923 189.409L192.786 200.433L187.649 189.463L186.34 186.545H186.239V201.784H188.908V203.567H181.404V201.73Z" fill="#030F26"/>
<path d="M214.036 203.995C212.324 203.995 210.964 203.509 210.007 202.536C209.05 201.564 208.547 200.267 208.547 198.592C208.547 197.619 208.698 196.808 209 196.052C209.302 195.295 209.756 194.701 210.41 194.215C211.065 193.728 211.921 193.35 212.979 193.08C214.036 192.81 215.295 192.702 216.857 192.702H219.526V189.784C219.526 188.217 219.173 187.028 218.468 186.163C217.763 185.353 216.705 184.92 215.295 184.92C214.691 184.92 214.087 184.974 213.583 185.082C213.079 185.19 212.626 185.353 212.274 185.569V185.623C212.525 185.785 212.777 186.001 213.029 186.325C213.281 186.649 213.432 187.082 213.432 187.622C213.432 188.271 213.231 188.811 212.878 189.189C212.525 189.567 212.022 189.73 211.417 189.73C210.864 189.73 210.36 189.567 210.007 189.189C209.655 188.811 209.453 188.271 209.453 187.514C209.453 186.974 209.604 186.379 209.907 185.893C210.209 185.353 210.662 184.92 211.216 184.488C211.77 184.056 212.525 183.731 213.382 183.515C214.238 183.245 215.195 183.137 216.303 183.137C218.267 183.137 219.778 183.677 220.835 184.758C221.943 185.839 222.497 187.352 222.497 189.297V201.834H225.217V203.185C224.965 203.401 224.612 203.563 224.159 203.725C223.706 203.887 223.202 203.941 222.648 203.941C221.691 203.941 220.986 203.671 220.483 203.077C219.979 202.536 219.727 201.726 219.727 200.807V200.537H219.526C219.375 200.969 219.123 201.402 218.871 201.834C218.619 202.266 218.216 202.59 217.813 202.915C217.36 203.239 216.857 203.455 216.252 203.671C215.547 203.887 214.842 203.995 214.036 203.995ZM215.295 201.834C216.454 201.834 217.411 201.51 218.267 200.861C219.072 200.213 219.475 199.24 219.475 197.943V194.215H217.159C216.101 194.215 215.245 194.323 214.59 194.485C213.885 194.647 213.331 194.917 212.928 195.241C212.525 195.566 212.223 195.944 212.022 196.43C211.82 196.917 211.77 197.457 211.77 198.051V198.862C211.77 199.835 212.072 200.591 212.727 201.077C213.281 201.618 214.137 201.834 215.295 201.834Z" fill="#030F26"/>
<path d="M230.455 201.73H233.829V185.465H229.297V189.463H227.131V183.573H243.499V189.463H241.333V185.465H236.801V201.73H240.175V203.513H230.455V201.73Z" fill="#030F26"/>
<path d="M254.881 204C253.622 204 252.464 203.73 251.406 203.244C250.349 202.757 249.442 202.055 248.687 201.136C247.931 200.218 247.377 199.137 246.974 197.84C246.572 196.543 246.37 195.138 246.37 193.517C246.37 191.95 246.572 190.491 246.974 189.248C247.377 187.951 247.982 186.87 248.687 185.952C249.442 185.033 250.349 184.331 251.406 183.844C252.464 183.358 253.622 183.088 254.881 183.088C256.14 183.088 257.299 183.358 258.356 183.844C259.414 184.331 260.32 185.033 261.076 185.952C261.831 186.87 262.385 187.951 262.788 189.248C263.191 190.545 263.392 191.95 263.392 193.517C263.392 195.138 263.191 196.543 262.788 197.84C262.385 199.137 261.781 200.218 261.076 201.136C260.32 202.055 259.414 202.757 258.356 203.244C257.299 203.73 256.14 204 254.881 204ZM254.881 202.109C255.788 202.109 256.543 201.947 257.198 201.623C257.853 201.298 258.407 200.866 258.809 200.272C259.212 199.677 259.565 199.029 259.766 198.218C259.968 197.408 260.068 196.543 260.068 195.624V191.409C260.068 190.491 259.968 189.626 259.766 188.816C259.565 188.005 259.263 187.357 258.809 186.762C258.407 186.168 257.853 185.736 257.198 185.411C256.543 185.087 255.788 184.925 254.881 184.925C253.975 184.925 253.169 185.087 252.565 185.411C251.91 185.736 251.406 186.168 250.953 186.762C250.5 187.357 250.198 188.005 249.996 188.816C249.795 189.626 249.694 190.491 249.694 191.409V195.624C249.694 196.543 249.795 197.408 249.996 198.218C250.198 199.029 250.5 199.677 250.953 200.272C251.356 200.866 251.91 201.298 252.565 201.623C253.169 201.947 253.975 202.109 254.881 202.109Z" fill="#030F26"/>
<path d="M268.428 203.999C267.37 203.999 266.514 203.675 266.01 203.081C265.456 202.486 265.204 201.73 265.204 200.865C265.204 200.217 265.356 199.622 265.708 199.244C266.01 198.812 266.514 198.596 267.118 198.596C267.672 198.596 268.075 198.758 268.377 199.082C268.679 199.406 268.831 199.892 268.831 200.433C268.831 200.865 268.73 201.189 268.528 201.514C268.327 201.784 268.125 202 267.874 202.108V202.216C267.924 202.27 268.025 202.27 268.125 202.27C268.226 202.27 268.327 202.27 268.428 202.27C268.982 202.27 269.435 202.054 269.838 201.676C270.09 201.405 270.341 201.027 270.543 200.541C270.795 200.055 270.996 199.298 271.198 198.271C271.399 197.245 271.5 195.894 271.651 194.165C271.752 192.435 271.802 190.274 271.802 187.572V185.302H269.133V183.573H284.946V185.302H282.277V201.73H284.946V203.513H276.637V201.73H279.306V185.465H273.967V187.41C273.967 190.112 273.917 192.327 273.816 194.11C273.716 195.894 273.565 197.353 273.363 198.542C273.162 199.676 272.91 200.595 272.608 201.243C272.305 201.892 271.953 202.432 271.55 202.864C271.147 203.297 270.644 203.621 270.09 203.783C269.536 203.891 268.982 203.999 268.428 203.999Z" fill="#030F26"/>
<path d="M296.882 204C295.623 204 294.464 203.73 293.407 203.244C292.349 202.757 291.443 202.055 290.687 201.136C289.932 200.218 289.378 199.137 288.975 197.84C288.572 196.543 288.371 195.138 288.371 193.517C288.371 191.95 288.572 190.491 288.975 189.248C289.378 187.951 289.982 186.87 290.687 185.952C291.443 185.033 292.349 184.331 293.407 183.844C294.464 183.358 295.623 183.088 296.882 183.088C298.141 183.088 299.299 183.358 300.357 183.844C301.414 184.331 302.321 185.033 303.076 185.952C303.832 186.87 304.386 187.951 304.789 189.248C305.191 190.545 305.393 191.95 305.393 193.517C305.393 195.138 305.191 196.543 304.789 197.84C304.386 199.137 303.781 200.218 303.076 201.136C302.321 202.055 301.414 202.757 300.357 203.244C299.349 203.73 298.191 204 296.882 204ZM296.882 202.109C297.788 202.109 298.544 201.947 299.198 201.623C299.853 201.298 300.407 200.866 300.81 200.272C301.213 199.677 301.565 199.029 301.767 198.218C301.968 197.408 302.069 196.543 302.069 195.624V191.409C302.069 190.491 301.968 189.626 301.767 188.816C301.565 188.005 301.263 187.357 300.81 186.762C300.407 186.168 299.853 185.736 299.198 185.411C298.544 185.087 297.788 184.925 296.882 184.925C295.975 184.925 295.169 185.087 294.565 185.411C293.91 185.736 293.407 186.168 292.954 186.762C292.551 187.357 292.198 188.005 291.997 188.816C291.795 189.626 291.694 190.491 291.694 191.409V195.624C291.694 196.543 291.795 197.408 291.997 198.218C292.198 199.029 292.5 199.677 292.954 200.272C293.356 200.866 293.91 201.298 294.565 201.623C295.22 201.947 295.975 202.109 296.882 202.109Z" fill="#030F26"/>
<path d="M308.817 201.73H311.486V185.302H308.817V183.573H323.321V189.463H321.156V185.465H314.407V201.73H317.781V203.513H308.767V201.73H308.817Z" fill="#030F26"/>
<path d="M326.344 201.733H329.013V186.062L326.344 185.576V184.279L331.984 183.144V201.787H334.653V203.57H326.344V201.733ZM330.524 178.983C329.919 178.983 329.416 178.767 329.114 178.389C328.811 178.011 328.61 177.524 328.61 176.93V176.714C328.61 176.173 328.761 175.687 329.114 175.255C329.466 174.822 329.919 174.66 330.524 174.66C331.128 174.66 331.632 174.876 331.984 175.255C332.337 175.633 332.488 176.119 332.488 176.714V176.93C332.488 177.47 332.337 177.957 331.984 178.389C331.632 178.767 331.128 178.983 330.524 178.983Z" fill="#030F26"/>
<path d="M336.87 201.73H338.884L341.957 196.542C342.359 195.894 342.712 195.407 343.115 195.083C343.467 194.759 343.921 194.597 344.424 194.489V194.435C342.712 194.381 341.302 193.84 340.295 192.922C339.237 192.003 338.733 190.76 338.733 189.247C338.733 188.491 338.834 187.734 339.086 187.086C339.338 186.383 339.69 185.789 340.194 185.248C340.697 184.708 341.302 184.33 342.007 184.006C342.712 183.735 343.568 183.573 344.575 183.573H355V185.302H352.331V201.73H355V203.513H346.691V201.73H349.36V194.921H346.338L341.251 203.513H336.87V201.73ZM349.36 193.138V185.465H344.978C344.424 185.465 343.971 185.573 343.568 185.789C343.165 186.005 342.863 186.275 342.611 186.599C342.359 186.924 342.208 187.302 342.108 187.68C342.007 188.058 341.957 188.491 341.957 188.869V189.842C341.957 190.868 342.208 191.679 342.762 192.273C343.316 192.868 344.072 193.192 344.978 193.192H349.36V193.138Z" fill="#030F26"/>
</svg>
