<svg width="355" height="205" viewBox="0 0 355 205" fill="none" xmlns="http://www.w3.org/2000/svg">
<path d="M63.2738 15.6885L58.6896 15.9047C54.3573 16.121 50.0249 15.3642 45.9948 13.5805C38.5896 10.2293 32.4437 6.12127 26.1971 3.09434C20.152 0.229566 12.9986 1.58087 8.36398 6.6618C-4.63302 20.9316 -2.81949 56.5521 16.1723 85.0918C19.2956 89.7403 22.8723 94.0104 27.1038 97.5779C35.1136 104.334 44.3828 108.55 54.055 111.091C54.5084 111.199 54.9618 110.821 54.9618 110.28V104.929C54.9618 104.551 54.7603 104.172 54.4076 104.01L45.6422 99.3075C37.5317 94.9293 30.5798 88.389 25.6429 80.173C24.3332 78.0109 23.0738 75.7407 21.9151 73.3624C19.9505 69.3625 18.3384 65.2005 17.3309 60.8223C15.0136 50.9307 14.5602 40.8229 15.6181 30.4448C16.1219 25.7423 18.0865 21.31 21.361 18.1749C21.4114 18.1209 21.4617 18.1209 21.4617 18.0668C24.3332 15.3102 28.4136 14.4994 32.0407 15.9047C33.6023 16.4993 35.2144 17.0939 36.8768 17.6885C45.2896 20.6614 54.458 20.2289 62.4678 16.2291C62.7197 16.121 63.0219 15.9588 63.2738 15.7966C63.3745 15.7426 63.3745 15.6885 63.2738 15.6885Z" fill="#F8FAFF"/>
<path d="M41.8133 5.47052L48.3622 6.98398C50.2765 7.4164 52.1908 7.57856 54.105 7.36235C62.4675 6.49751 69.369 3.30842 76.7742 0.767962C82.9201 -1.34008 89.6201 0.984172 93.3983 6.60561C96.2193 10.8757 98.2848 15.6324 99.4434 20.9295C99.4938 21.1997 99.2923 21.47 99.0404 21.47H84.5321C84.381 21.47 84.2299 21.3619 84.1795 21.1997C84.0787 21.0376 84.0284 20.8214 83.9276 20.6592C81.4592 15.1999 76.1193 11.8487 70.4772 12.0108L61.0569 12.2271C56.5231 12.3352 52.0396 11.3622 47.9088 9.25418C45.8938 8.22719 43.8283 7.03803 41.7629 5.68673C41.6622 5.57862 41.7125 5.47052 41.8133 5.47052Z" fill="#F8FAFF"/>
<path d="M18.9429 33.474C22.3684 18.0691 33.7534 16.6097 48.3121 26.6634C48.3624 26.6634 48.3121 26.7175 48.2617 26.7175C34.8617 21.2582 24.585 23.096 19.094 33.5281C19.0436 33.5821 18.9429 33.5281 18.9429 33.474Z" fill="#F8FAFF"/>
<path d="M78.6388 112.444C78.8403 112.768 78.9914 113.039 79.1426 113.363C80.2508 115.525 79.8982 118.282 78.2358 120.011C68.1102 130.66 44.232 124.281 30.1267 111.579C30.026 111.471 29.8749 111.633 29.9756 111.741C38.9929 128.443 68.7147 135.524 80.4523 123.417C83.1726 120.606 83.1223 115.849 80.1501 113.309C79.6967 112.93 79.2433 112.606 78.7396 112.336C78.6388 112.282 78.5884 112.39 78.6388 112.444Z" fill="#F8FAFF"/>
<path d="M75.7169 132.979C75.868 133.249 76.0192 133.519 76.1703 133.735C77.1274 135.627 76.8252 138.005 75.4146 139.519C66.5989 148.762 45.844 143.194 33.5522 132.222C33.4515 132.168 33.3507 132.276 33.4011 132.33C41.2597 146.87 67.1026 153.032 77.3289 142.492C79.6966 140.059 79.6462 135.897 77.0771 133.735C76.674 133.411 76.271 133.141 75.8177 132.87C75.7673 132.87 75.6665 132.924 75.7169 132.979Z" fill="#F8FAFF"/>
<path d="M73.6006 153.03C73.7517 153.246 73.8525 153.516 74.0036 153.733C74.86 155.408 74.6081 157.516 73.2983 158.868C65.4397 167.084 46.9517 162.165 36.0201 152.327C35.9194 152.273 35.8186 152.381 35.869 152.435C42.8713 165.354 65.8931 170.867 75.0111 161.516C77.1269 159.354 77.0765 155.678 74.7592 153.679C74.4066 153.408 74.054 153.138 73.651 152.922C73.6006 152.868 73.5502 152.976 73.6006 153.03Z" fill="#F8FAFF"/>
<path d="M70.6787 174.056C70.7794 174.272 70.8802 174.435 70.9809 174.651C71.6862 176.056 71.4847 177.84 70.4268 178.921C63.8779 185.786 48.4629 181.678 39.3448 173.462C39.2945 173.408 39.1937 173.462 39.2441 173.57C45.0877 184.38 64.2809 188.921 71.8877 181.137C73.6509 179.353 73.6005 176.272 71.6862 174.597C71.384 174.381 71.0817 174.164 70.7794 173.948C70.7291 173.948 70.6787 174.002 70.6787 174.056Z" fill="#F8FAFF"/>
<path d="M66.5982 192.276C66.9004 192.979 67.1019 193.627 67.3035 194.33C67.8072 196.222 66.7997 198.384 65.1373 199.195C58.2862 202.384 49.7726 199.411 41.9643 194.654C41.8636 194.6 41.7628 194.708 41.8132 194.816C47.9087 203.573 61.8125 206.438 68.4117 201.951C70.6283 200.438 71.2831 197.249 69.7215 194.979C68.9659 193.843 67.8576 192.979 66.7493 192.168C66.6989 192.06 66.5478 192.168 66.5982 192.276Z" fill="#F8FAFF"/>
<path d="M67.4043 35.3638L57.4299 34.1206C57.2788 34.1206 57.2284 34.0125 57.2284 33.8503V28.9856C57.2284 28.8234 57.3291 28.7153 57.4803 28.7153H78.2352C78.3359 28.7153 78.3863 28.7694 78.4367 28.8234L116.974 82.7677C117.125 82.9839 117.428 82.8758 117.428 82.6055V36.3908C117.428 36.2827 117.327 36.1205 117.226 36.1205L108.914 34.8773C108.813 34.8773 108.713 34.7692 108.713 34.607V28.9856C108.713 28.8234 108.813 28.7153 108.965 28.7153H132.188C132.339 28.7153 132.44 28.8234 132.44 28.9856V34.607C132.44 34.7151 132.339 34.8773 132.238 34.8773L124.631 36.1205C124.531 36.1205 124.43 36.2286 124.43 36.3908V108.551C124.43 108.713 124.329 108.821 124.178 108.821H119.392C119.292 108.821 119.241 108.767 119.191 108.713L74.9104 46.3904C74.7592 46.1742 74.457 46.2823 74.457 46.5526V101.037C74.457 101.2 74.5577 101.308 74.6585 101.308L83.172 102.335C83.3232 102.335 83.3735 102.443 83.3735 102.605V108.497C83.3735 108.659 83.2728 108.767 83.1216 108.767H58.9412C58.79 108.767 58.6893 108.659 58.6893 108.497V102.605C58.6893 102.443 58.7901 102.335 58.8908 102.335L67.354 101.2C67.5051 101.2 67.5555 101.091 67.5555 100.929V35.634C67.6562 35.4719 67.5555 35.3638 67.4043 35.3638Z" fill="#030F26"/>
<path d="M170.423 28.7153H175.561C175.662 28.7153 175.762 28.7694 175.813 28.8775L201.202 101.578C201.253 101.686 201.303 101.74 201.404 101.74L210.169 103.578C210.27 103.578 210.371 103.74 210.371 103.848V108.497C210.371 108.659 210.27 108.767 210.119 108.767H179.793C179.641 108.767 179.541 108.659 179.541 108.497V103.848C179.541 103.74 179.641 103.632 179.742 103.578L188.054 102.01C188.205 101.956 188.306 101.794 188.256 101.632L180.951 80.5516C180.901 80.4435 180.8 80.3894 180.699 80.3894L160.196 80.3353C160.095 80.3353 159.995 80.3894 159.944 80.4975L152.186 102.227C152.136 102.389 152.237 102.551 152.388 102.605L160.247 103.578C160.398 103.578 160.448 103.686 160.448 103.848V108.497C160.448 108.659 160.347 108.767 160.196 108.767H133.95C133.799 108.767 133.698 108.659 133.698 108.497V103.848C133.698 103.686 133.799 103.578 133.9 103.578L142.313 102.659C142.414 102.659 142.464 102.605 142.514 102.497L170.07 28.8234C170.221 28.7694 170.322 28.7153 170.423 28.7153ZM170.423 51.4173L162.413 73.795C162.362 73.9572 162.463 74.1734 162.665 74.1734L178.332 74.0112C178.483 74.0112 178.634 73.8491 178.583 73.6329L170.926 51.4714C170.775 51.2011 170.473 51.2011 170.423 51.4173Z" fill="#030F26"/>
<path d="M223.518 35.2557L213.292 34.0665C213.14 34.0665 213.04 33.9584 213.04 33.7963V28.9856C213.04 28.8234 213.14 28.7153 213.292 28.7153H245.834C245.986 28.7153 246.086 28.8234 246.086 28.9856V33.7963C246.086 33.9584 245.986 34.0665 245.834 34.0665L235.608 35.2016C235.457 35.2016 235.356 35.3097 235.356 35.4719L235.306 101.632C235.306 101.794 235.407 101.902 235.558 101.902L245.784 102.983C245.935 102.983 246.036 103.091 246.036 103.254V108.497C246.036 108.659 245.935 108.767 245.784 108.767H213.241C213.09 108.767 212.989 108.659 212.989 108.497V103.145C212.989 102.983 213.09 102.875 213.241 102.875L223.417 101.902C223.568 101.902 223.669 101.794 223.669 101.632V35.5259C223.719 35.4178 223.619 35.3097 223.518 35.2557Z" fill="#030F26"/>
<path d="M332.432 35.2557L322.205 34.0665C322.054 34.0665 321.953 33.9584 321.953 33.7963V28.9856C321.953 28.8234 322.054 28.7153 322.205 28.7153H354.748C354.899 28.7153 355 28.8234 355 28.9856V33.7963C355 33.9584 354.899 34.0665 354.748 34.0665L344.522 35.2016C344.371 35.2016 344.27 35.3097 344.27 35.4719L344.22 101.632C344.22 101.794 344.32 101.902 344.471 101.902L354.698 102.983C354.849 102.983 354.95 103.091 354.95 103.254V108.497C354.95 108.659 354.849 108.767 354.698 108.767H322.155C322.004 108.767 321.903 108.659 321.903 108.497V103.145C321.903 102.983 322.004 102.875 322.155 102.875L332.331 101.902C332.482 101.902 332.583 101.794 332.583 101.632V35.5259C332.683 35.4178 332.583 35.3097 332.432 35.2557Z" fill="#030F26"/>
<path d="M251.477 102.818L261.149 101.791C261.3 101.791 261.401 101.683 261.401 101.521V36.0093C261.401 35.8472 261.3 35.7391 261.199 35.7391L251.124 34.3878C250.973 34.3878 250.922 34.2797 250.922 34.1175V29.3609C250.922 29.1987 251.023 29.0906 251.174 29.0906H266.74C268.252 29.0906 272.433 28.8204 273.843 28.7123C274.196 28.7123 274.498 28.6582 274.851 28.6582H282.256C294.296 28.3879 302.104 32.604 305.883 41.1983C307.545 44.982 308.2 49.1981 307.595 53.3061C306.336 61.7382 300.744 66.657 292.986 69.9001C292.886 69.9542 292.835 70.0623 292.835 70.1704V70.6028C292.835 70.6569 292.886 70.765 292.936 70.819C295.354 72.873 297.571 75.3594 299.233 78.5485L310.165 100.818C310.467 101.467 311.071 101.899 311.777 102.007L318.779 102.926C318.93 102.926 318.98 103.034 318.98 103.196V108.493C318.98 108.656 318.88 108.764 318.728 108.764H300.392C299.989 108.764 299.586 108.548 299.334 108.169C298.679 107.142 293.44 95.4128 293.44 95.4128L286.891 82.116C284.725 77.7918 282.105 74.3324 278.327 72.6568C277.42 72.2244 276.413 72.0622 275.405 72.0082C274.851 72.0082 273.843 72.0082 273.39 72.0082C273.239 72.0082 273.138 72.1163 273.138 72.2784V101.467C273.138 101.629 273.239 101.737 273.39 101.737L284.17 102.764C284.322 102.764 284.422 102.872 284.422 103.034V108.223C284.422 108.385 284.322 108.493 284.17 108.493H251.527C251.376 108.493 251.275 108.385 251.275 108.223V103.034C251.275 102.926 251.376 102.818 251.477 102.818ZM293.238 44.8739C290.216 37.6309 283.113 35.5769 273.39 36.1174C273.239 36.1174 273.138 36.2255 273.138 36.3877V65.3597C273.138 65.5219 273.239 65.63 273.39 65.63C274.347 65.684 275.405 65.7381 278.277 65.7381C286.236 65.5759 291.979 62.7112 293.893 55.306C294.8 51.8467 294.598 48.117 293.238 44.8739Z" fill="#030F26"/>
<path d="M104.884 170.869C103.524 170.869 102.365 170.599 101.307 170.112C100.249 169.626 99.393 168.923 98.6373 168.004C97.9321 167.085 97.3779 166.004 96.9749 164.707C96.5719 163.41 96.4208 162.004 96.4208 160.437C96.4208 158.815 96.6223 157.41 97.0757 156.113C97.4787 154.815 98.0832 153.734 98.8388 152.815C99.5945 151.897 100.501 151.194 101.61 150.707C102.667 150.221 103.876 149.951 105.136 149.951C107.1 149.951 108.612 150.383 109.77 151.302C110.929 152.167 111.483 153.302 111.483 154.707C111.483 155.518 111.282 156.167 110.879 156.653C110.476 157.14 109.922 157.356 109.216 157.356C108.461 157.356 107.906 157.14 107.554 156.653C107.201 156.167 107 155.626 107 154.978C107 154.437 107.151 153.951 107.403 153.518C107.655 153.086 108.058 152.815 108.511 152.545V152.437C108.209 152.221 107.806 152.059 107.302 151.951C106.798 151.843 106.194 151.788 105.388 151.788C104.531 151.788 103.776 151.951 103.07 152.275C102.365 152.599 101.761 153.086 101.257 153.68C100.753 154.275 100.35 154.978 100.048 155.788C99.7456 156.599 99.5945 157.464 99.5945 158.437V161.302C99.5945 162.383 99.7456 163.302 99.9975 164.166C100.249 165.031 100.652 165.788 101.156 166.383C101.66 166.977 102.214 167.464 102.919 167.788C103.625 168.112 104.38 168.274 105.237 168.274C106.697 168.274 107.856 167.95 108.713 167.301C109.569 166.653 110.224 165.788 110.728 164.707L111.886 165.518C111.685 166.166 111.382 166.815 110.929 167.464C110.526 168.112 110.022 168.653 109.468 169.139C108.914 169.626 108.209 170.004 107.453 170.274C106.748 170.761 105.841 170.869 104.884 170.869Z" fill="#030F26"/>
<path d="M115.211 168.652H117.881V152.977L115.211 152.49V151.193L120.853 150.058V168.706H123.523V170.49H115.211V168.652ZM119.342 145.896C118.737 145.896 118.233 145.68 117.931 145.301C117.629 144.923 117.427 144.437 117.427 143.842V143.626C117.427 143.085 117.578 142.599 117.931 142.166C118.233 141.788 118.737 141.572 119.342 141.572C119.946 141.572 120.45 141.788 120.803 142.166C121.155 142.545 121.306 143.031 121.306 143.626V143.842C121.306 144.383 121.155 144.869 120.803 145.301C120.45 145.68 119.997 145.896 119.342 145.896Z" fill="#030F26"/>
<path d="M126.544 168.657H129.265V152.225H126.544V150.496H133.093L138.433 161.955H138.584L143.874 150.496H150.07V152.225H147.4V168.657H150.07V170.441H141.758V168.657H144.478V153.414H144.378L143.068 156.333L137.98 167.306L132.841 156.333L131.532 153.414H131.431V168.657H134.101V170.441H126.595V168.657H126.544Z" fill="#030F26"/>
<path d="M161.96 170.869C160.65 170.869 159.441 170.598 158.434 170.112C157.376 169.625 156.52 168.923 155.764 168.004C155.059 167.085 154.505 166.004 154.102 164.707C153.698 163.409 153.547 162.004 153.547 160.436C153.547 158.869 153.749 157.464 154.202 156.22C154.605 154.923 155.21 153.842 155.915 152.923C156.671 152.004 157.527 151.302 158.535 150.761C159.542 150.275 160.65 150.004 161.859 150.004C163.068 150.004 164.177 150.221 165.134 150.707C166.091 151.194 166.897 151.842 167.552 152.653C168.207 153.518 168.711 154.491 169.063 155.68C169.416 156.869 169.617 158.112 169.617 159.464V160.382H156.822V161.409C156.822 163.572 157.326 165.301 158.333 166.544C159.341 167.788 160.701 168.436 162.414 168.436C163.925 168.436 165.083 168.112 165.94 167.463C166.796 166.815 167.502 165.95 168.005 164.923L169.214 165.734C168.962 166.382 168.66 167.031 168.207 167.68C167.804 168.328 167.3 168.869 166.695 169.355C166.091 169.842 165.386 170.22 164.63 170.49C163.824 170.76 162.917 170.869 161.96 170.869ZM156.771 158.599H166.444V158.22C166.444 157.301 166.343 156.491 166.192 155.734C165.99 154.977 165.738 154.275 165.335 153.734C164.932 153.193 164.479 152.707 163.874 152.383C163.27 152.058 162.565 151.896 161.759 151.896C160.953 151.896 160.197 152.058 159.592 152.383C158.988 152.707 158.434 153.139 158.031 153.68C157.628 154.22 157.275 154.923 157.074 155.68C156.872 156.437 156.771 157.247 156.771 158.166V158.599Z" fill="#030F26"/>
<path d="M172.992 168.657H175.662V152.225H172.992V150.496H181.203V152.225H178.533V159.523L178.231 164.874H178.332L187.651 153.361V152.225H184.981V150.496H193.192V152.225H190.523V168.657H193.192V170.441H184.981V168.657H187.651V161.414L187.953 156.009H187.802L178.533 167.522V168.657H181.203V170.441H172.992V168.657ZM183.067 147.361C182.059 147.361 181.203 147.253 180.498 146.982C179.792 146.712 179.188 146.442 178.735 146.009C178.281 145.631 177.929 145.199 177.727 144.658C177.526 144.172 177.425 143.631 177.425 143.091C177.425 142.442 177.576 141.901 177.929 141.577C178.281 141.253 178.684 141.037 179.238 141.037C179.792 141.037 180.246 141.199 180.548 141.523C180.85 141.847 181.001 142.334 181.001 142.928C181.001 143.469 180.85 143.847 180.598 144.172C180.347 144.442 180.044 144.658 179.692 144.82V144.874C180.095 145.091 180.598 145.253 181.153 145.361C181.707 145.469 182.362 145.523 183.067 145.523C183.772 145.523 184.377 145.469 184.981 145.361C185.535 145.253 186.039 145.091 186.442 144.874V144.82C186.089 144.712 185.787 144.496 185.535 144.172C185.283 143.901 185.132 143.469 185.132 142.928C185.132 142.334 185.283 141.847 185.586 141.523C185.888 141.199 186.341 141.037 186.895 141.037C187.45 141.037 187.903 141.199 188.205 141.577C188.558 141.901 188.709 142.442 188.709 143.091C188.709 143.631 188.608 144.172 188.407 144.658C188.205 145.145 187.853 145.631 187.399 146.009C186.946 146.388 186.341 146.712 185.636 146.982C184.981 147.253 184.125 147.361 183.067 147.361Z" fill="#030F26"/>
<path d="M196.769 168.657H199.438V152.225H196.769V150.496H205.081V152.225H202.411V159.36H211.327V152.225H208.657V150.496H216.969V152.225H214.299V168.657H216.969V170.441H208.657V168.657H211.327V161.252H202.411V168.657H205.081V170.441H196.769V168.657Z" fill="#030F26"/>
<path d="M226.087 170.869C224.375 170.869 223.014 170.382 222.057 169.409C221.1 168.436 220.596 167.139 220.596 165.463C220.596 164.49 220.747 163.68 221.05 162.923C221.352 162.166 221.805 161.572 222.46 161.085C223.115 160.599 223.972 160.22 225.029 159.95C226.087 159.68 227.347 159.572 228.908 159.572H231.578V156.653C231.578 155.085 231.226 153.896 230.52 153.031C229.815 152.221 228.757 151.788 227.347 151.788C226.742 151.788 226.138 151.842 225.634 151.95C225.13 152.058 224.677 152.221 224.324 152.437V152.491C224.576 152.653 224.828 152.869 225.08 153.193C225.332 153.518 225.483 153.95 225.483 154.491C225.483 155.139 225.281 155.68 224.929 156.058C224.576 156.437 224.072 156.599 223.468 156.599C222.914 156.599 222.41 156.437 222.057 156.058C221.705 155.68 221.503 155.139 221.503 154.383C221.503 153.842 221.654 153.248 221.956 152.761C222.259 152.221 222.712 151.788 223.266 151.356C223.82 150.923 224.576 150.599 225.432 150.383C226.289 150.112 227.246 150.004 228.354 150.004C230.319 150.004 231.83 150.545 232.888 151.626C233.996 152.707 234.55 154.22 234.55 156.166V168.707H237.271V170.058C237.019 170.274 236.666 170.436 236.213 170.598C235.759 170.76 235.256 170.815 234.702 170.815C233.744 170.815 233.039 170.544 232.535 169.95C232.032 169.409 231.78 168.598 231.78 167.68V167.517H231.578C231.427 167.95 231.175 168.382 230.923 168.815C230.672 169.247 230.268 169.571 229.865 169.896C229.412 170.22 228.908 170.436 228.304 170.652C227.599 170.815 226.893 170.869 226.087 170.869ZM227.347 168.761C228.505 168.761 229.462 168.436 230.319 167.788C231.125 167.139 231.528 166.166 231.528 164.869V161.139H229.211C228.153 161.139 227.296 161.247 226.641 161.409C225.936 161.572 225.382 161.842 224.979 162.166C224.576 162.49 224.274 162.869 224.072 163.355C223.871 163.842 223.82 164.382 223.82 164.977V165.788C223.82 166.761 224.123 167.517 224.778 168.004C225.332 168.49 226.188 168.761 227.347 168.761Z" fill="#030F26"/>
<path d="M104.884 204.058C103.524 204.058 102.365 203.788 101.307 203.301C100.249 202.815 99.3931 202.112 98.6374 201.193C97.9322 200.274 97.378 199.193 96.975 197.896C96.572 196.599 96.4209 195.193 96.4209 193.626C96.4209 192.004 96.6224 190.599 97.0758 189.302C97.4788 188.004 98.0833 186.923 98.8389 186.004C99.5946 185.086 100.501 184.383 101.61 183.896C102.668 183.41 103.877 183.14 105.136 183.14C107.101 183.14 108.612 183.572 109.771 184.491C110.929 185.356 111.483 186.491 111.483 187.896C111.483 188.707 111.282 189.356 110.879 189.842C110.476 190.329 109.922 190.545 109.216 190.545C108.461 190.545 107.907 190.329 107.554 189.842C107.201 189.356 107 188.815 107 188.167C107 187.626 107.151 187.14 107.403 186.707C107.655 186.275 108.058 186.004 108.511 185.734V185.626C108.209 185.41 107.806 185.248 107.302 185.14C106.798 185.031 106.194 184.977 105.388 184.977C104.531 184.977 103.776 185.14 103.071 185.464C102.365 185.788 101.761 186.275 101.257 186.869C100.753 187.464 100.35 188.167 100.048 188.977C99.7457 189.788 99.5946 190.653 99.5946 191.626V194.491C99.5946 195.572 99.7457 196.491 99.9976 197.355C100.249 198.22 100.652 198.977 101.156 199.572C101.66 200.166 102.214 200.653 102.919 200.977C103.625 201.301 104.38 201.463 105.237 201.463C106.698 201.463 107.856 201.139 108.713 200.49C109.569 199.842 110.224 198.977 110.728 197.896L111.886 198.707C111.685 199.355 111.383 200.004 110.929 200.653C110.526 201.301 110.022 201.842 109.468 202.328C108.914 202.815 108.209 203.193 107.453 203.463C106.748 203.896 105.841 204.058 104.884 204.058Z" fill="#030F26"/>
<path d="M118.357 201.787H121.733V185.517H117.199V189.517H115.033V183.625H131.405V189.517H129.239V185.517H124.705V201.787H128.08V203.571H118.357V201.787Z" fill="#030F26"/>
<path d="M142.789 204.058C141.53 204.058 140.371 203.788 139.313 203.301C138.255 202.815 137.348 202.112 136.593 201.193C135.837 200.274 135.283 199.193 134.88 197.896C134.477 196.599 134.275 195.193 134.275 193.572C134.275 192.004 134.477 190.545 134.88 189.302C135.283 188.004 135.887 186.923 136.593 186.004C137.348 185.086 138.255 184.383 139.313 183.896C140.371 183.41 141.53 183.14 142.789 183.14C144.048 183.14 145.207 183.41 146.265 183.896C147.323 184.383 148.23 185.086 148.985 186.004C149.741 186.923 150.295 188.004 150.698 189.302C151.101 190.599 151.302 192.004 151.302 193.572C151.302 195.193 151.101 196.599 150.698 197.896C150.295 199.193 149.69 200.274 148.985 201.193C148.23 202.112 147.323 202.815 146.265 203.301C145.207 203.788 144.048 204.058 142.789 204.058ZM142.789 202.166C143.696 202.166 144.451 202.004 145.106 201.68C145.761 201.355 146.315 200.923 146.718 200.328C147.121 199.734 147.474 199.085 147.675 198.274C147.877 197.464 147.978 196.599 147.978 195.68V191.464C147.978 190.545 147.877 189.68 147.675 188.869C147.474 188.058 147.172 187.41 146.718 186.815C146.315 186.221 145.761 185.788 145.106 185.464C144.451 185.14 143.696 184.977 142.789 184.977C141.882 184.977 141.076 185.14 140.472 185.464C139.817 185.788 139.313 186.221 138.86 186.815C138.457 187.41 138.104 188.058 137.902 188.869C137.701 189.68 137.6 190.545 137.6 191.464V195.68C137.6 196.599 137.701 197.464 137.902 198.274C138.104 199.085 138.406 199.734 138.86 200.328C139.263 200.923 139.817 201.355 140.472 201.68C141.076 202.004 141.882 202.166 142.789 202.166Z" fill="#030F26"/>
<path d="M154.729 201.787H157.449V185.355H154.729V183.625H161.278L166.617 195.085H166.769L172.058 183.625H178.254V185.355H175.584V201.787H178.254V203.571H169.942V201.787H172.663V186.544H172.562L171.252 189.463L166.114 200.49L160.975 189.517L159.666 186.598H159.565V201.841H162.235V203.625H154.729V201.787Z" fill="#030F26"/>
<path d="M187.37 204.053C185.657 204.053 184.297 203.566 183.34 202.593C182.383 201.62 181.879 200.323 181.879 198.647C181.879 197.675 182.03 196.864 182.333 196.107C182.635 195.35 183.088 194.756 183.743 194.269C184.398 193.783 185.254 193.404 186.312 193.134C187.37 192.864 188.63 192.756 190.191 192.756H192.861V189.837C192.861 188.269 192.508 187.08 191.803 186.215C191.098 185.405 190.04 184.972 188.63 184.972C188.025 184.972 187.421 185.026 186.917 185.134C186.413 185.242 185.96 185.405 185.607 185.621V185.675C185.859 185.837 186.111 186.053 186.363 186.378C186.614 186.702 186.766 187.134 186.766 187.675C186.766 188.323 186.564 188.864 186.211 189.242C185.859 189.621 185.355 189.783 184.751 189.783C184.196 189.783 183.693 189.621 183.34 189.242C182.987 188.864 182.786 188.323 182.786 187.567C182.786 187.026 182.937 186.432 183.239 185.945C183.542 185.405 183.995 184.972 184.549 184.54C185.103 184.107 185.859 183.783 186.715 183.567C187.572 183.297 188.529 183.188 189.637 183.188C191.602 183.188 193.113 183.729 194.171 184.81C195.279 185.891 195.833 187.405 195.833 189.35V201.891H198.554V203.242C198.302 203.458 197.949 203.62 197.496 203.782C197.042 203.945 196.539 203.999 195.984 203.999C195.027 203.999 194.322 203.728 193.818 203.134C193.314 202.593 193.063 201.782 193.063 200.864V200.593H192.861C192.71 201.026 192.458 201.458 192.206 201.891C191.954 202.323 191.551 202.647 191.148 202.972C190.695 203.296 190.191 203.512 189.587 203.728C188.881 203.945 188.176 204.053 187.37 204.053ZM188.63 201.891C189.788 201.891 190.745 201.566 191.602 200.918C192.408 200.269 192.811 199.296 192.811 197.999V194.269H190.493C189.436 194.269 188.579 194.377 187.924 194.539C187.219 194.702 186.665 194.972 186.262 195.296C185.859 195.621 185.557 195.999 185.355 196.485C185.154 196.972 185.103 197.512 185.103 198.107V198.918C185.103 199.891 185.405 200.647 186.06 201.134C186.614 201.674 187.471 201.891 188.63 201.891Z" fill="#030F26"/>
<path d="M203.794 201.787H207.169V185.517H202.635V189.517H200.469V183.625H216.841V189.517H214.675V185.517H210.141V201.787H213.516V203.571H203.794V201.787Z" fill="#030F26"/>
<path d="M228.227 204.058C226.967 204.058 225.809 203.788 224.751 203.301C223.693 202.815 222.786 202.112 222.03 201.193C221.275 200.274 220.721 199.193 220.318 197.896C219.915 196.599 219.713 195.193 219.713 193.572C219.713 192.004 219.915 190.545 220.318 189.302C220.721 188.004 221.325 186.923 222.03 186.004C222.786 185.086 223.693 184.383 224.751 183.896C225.809 183.41 226.967 183.14 228.227 183.14C229.486 183.14 230.645 183.41 231.703 183.896C232.76 184.383 233.667 185.086 234.423 186.004C235.179 186.923 235.733 188.004 236.136 189.302C236.539 190.599 236.74 192.004 236.74 193.572C236.74 195.193 236.539 196.599 236.136 197.896C235.733 199.193 235.128 200.274 234.423 201.193C233.667 202.112 232.76 202.815 231.703 203.301C230.645 203.788 229.486 204.058 228.227 204.058ZM228.227 202.166C229.133 202.166 229.889 202.004 230.544 201.68C231.199 201.355 231.753 200.923 232.156 200.328C232.559 199.734 232.912 199.085 233.113 198.274C233.315 197.464 233.415 196.599 233.415 195.68V191.464C233.415 190.545 233.315 189.68 233.113 188.869C232.912 188.058 232.609 187.41 232.156 186.815C231.753 186.221 231.199 185.788 230.544 185.464C229.889 185.14 229.133 184.977 228.227 184.977C227.32 184.977 226.514 185.14 225.909 185.464C225.254 185.788 224.751 186.221 224.297 186.815C223.844 187.41 223.542 188.058 223.34 188.869C223.139 189.68 223.038 190.545 223.038 191.464V195.68C223.038 196.599 223.139 197.464 223.34 198.274C223.542 199.085 223.844 199.734 224.297 200.328C224.7 200.923 225.254 201.355 225.909 201.68C226.514 202.004 227.32 202.166 228.227 202.166Z" fill="#030F26"/>
<path d="M241.777 204.057C240.719 204.057 239.863 203.733 239.359 203.138C238.805 202.544 238.553 201.787 238.553 200.922C238.553 200.274 238.704 199.679 239.056 199.301C239.359 198.868 239.863 198.652 240.467 198.652C241.021 198.652 241.424 198.814 241.726 199.139C242.029 199.463 242.18 199.949 242.18 200.49C242.18 200.922 242.079 201.247 241.878 201.571C241.676 201.841 241.475 202.057 241.223 202.165V202.274C241.273 202.328 241.374 202.328 241.475 202.328C241.575 202.328 241.676 202.328 241.777 202.328C242.331 202.328 242.784 202.111 243.187 201.733C243.439 201.463 243.691 201.084 243.893 200.598C244.144 200.111 244.346 199.355 244.547 198.328C244.749 197.301 244.85 195.949 245.001 194.22C245.102 192.49 245.152 190.328 245.152 187.625V185.355H242.482V183.625H258.3V185.355H255.63V201.787H258.3V203.571H249.988V201.787H252.658V185.517H247.318V187.463C247.318 190.166 247.268 192.382 247.167 194.166C247.066 195.949 246.915 197.409 246.714 198.598C246.512 199.733 246.26 200.652 245.958 201.301C245.656 201.949 245.303 202.49 244.9 202.922C244.497 203.355 243.993 203.679 243.439 203.841C242.885 203.949 242.331 204.057 241.777 204.057Z" fill="#030F26"/>
<path d="M270.239 204.058C268.98 204.058 267.821 203.788 266.763 203.301C265.705 202.815 264.798 202.112 264.043 201.193C263.287 200.274 262.733 199.193 262.33 197.896C261.927 196.599 261.725 195.193 261.725 193.572C261.725 192.004 261.927 190.545 262.33 189.302C262.733 188.004 263.338 186.923 264.043 186.004C264.798 185.086 265.705 184.383 266.763 183.896C267.821 183.41 268.98 183.14 270.239 183.14C271.498 183.14 272.657 183.41 273.715 183.896C274.773 184.383 275.68 185.086 276.435 186.004C277.191 186.923 277.745 188.004 278.148 189.302C278.551 190.599 278.753 192.004 278.753 193.572C278.753 195.193 278.551 196.599 278.148 197.896C277.745 199.193 277.141 200.274 276.435 201.193C275.68 202.112 274.773 202.815 273.715 203.301C272.707 203.788 271.549 204.058 270.239 204.058ZM270.239 202.166C271.146 202.166 271.901 202.004 272.556 201.68C273.211 201.355 273.765 200.923 274.168 200.328C274.571 199.734 274.924 199.085 275.125 198.274C275.327 197.464 275.428 196.599 275.428 195.68V191.464C275.428 190.545 275.327 189.68 275.125 188.869C274.924 188.058 274.622 187.41 274.168 186.815C273.765 186.221 273.211 185.788 272.556 185.464C271.901 185.14 271.146 184.977 270.239 184.977C269.332 184.977 268.526 185.14 267.922 185.464C267.267 185.788 266.763 186.221 266.31 186.815C265.907 187.41 265.554 188.058 265.353 188.869C265.151 189.68 265.05 190.545 265.05 191.464V195.68C265.05 196.599 265.151 197.464 265.353 198.274C265.554 199.085 265.856 199.734 266.31 200.328C266.713 200.923 267.267 201.355 267.922 201.68C268.577 202.004 269.332 202.166 270.239 202.166Z" fill="#030F26"/>
<path d="M282.178 201.787H284.848V185.355H282.178V183.625H296.686V189.517H294.52V185.517H287.769V201.787H291.145V203.571H282.127V201.787H282.178Z" fill="#030F26"/>
<path d="M299.709 201.79H302.379V186.115L299.709 185.629V184.331L305.351 183.196V201.844H308.021V203.628H299.709V201.79ZM303.89 179.034C303.286 179.034 302.782 178.818 302.48 178.44C302.178 178.061 301.976 177.575 301.976 176.98V176.764C301.976 176.223 302.127 175.737 302.48 175.305C302.833 174.872 303.286 174.71 303.89 174.71C304.495 174.71 304.999 174.926 305.351 175.305C305.704 175.683 305.855 176.169 305.855 176.764V176.98C305.855 177.521 305.704 178.007 305.351 178.44C304.999 178.818 304.495 179.034 303.89 179.034Z" fill="#030F26"/>
<path d="M310.239 201.787H312.254L315.327 196.598C315.73 195.949 316.082 195.463 316.485 195.139C316.838 194.814 317.291 194.652 317.795 194.544V194.49C316.082 194.436 314.672 193.895 313.664 192.977C312.606 192.058 312.103 190.814 312.103 189.301C312.103 188.544 312.203 187.788 312.455 187.139C312.707 186.436 313.06 185.842 313.563 185.301C314.067 184.761 314.672 184.382 315.377 184.058C316.082 183.788 316.939 183.625 317.946 183.625H328.374V185.355H325.704V201.787H328.374V203.571H320.062V201.787H322.732V194.976H319.709L314.621 203.571H310.239V201.787ZM322.732 193.193V185.517H318.349C317.795 185.517 317.342 185.625 316.939 185.842C316.536 186.058 316.233 186.328 315.981 186.652C315.73 186.977 315.578 187.355 315.478 187.733C315.377 188.112 315.327 188.544 315.327 188.923V189.896C315.327 190.923 315.578 191.733 316.133 192.328C316.687 192.922 317.442 193.247 318.349 193.247H322.732V193.193Z" fill="#030F26"/>
</svg>
